<?xml version="1.0" encoding="UTF-8"?> <svg xmlns="http://www.w3.org/2000/svg" id="Group_20" data-name="Group 20" width="1000" height="563" viewBox="0 0 1000 563"><g id="Group_3" data-name="Group 3"><rect id="Rectangle_1" data-name="Rectangle 1" width="1000" height="563" fill="#00263c"></rect><text id="LeewayHertz" transform="translate(879 532)" fill="#fff" font-size="16" font-family="Georgia" opacity="0.3"><tspan x="0" y="0">LeewayHertz</tspan></text></g><g id="Group_19" data-name="Group 19" transform="translate(-6 -31)"><text id="Structured_Text" data-name="Structured Text" transform="translate(838 377)" fill="#fff" font-size="20" font-family="OpenSans-Semibold, Open Sans" font-weight="600"><tspan x="-51" y="0">Structured</tspan><tspan x="-20" y="27">Text</tspan></text><g id="Group_11" data-name="Group 11" transform="translate(217 278)"><rect id="Rectangle_53" data-name="Rectangle 53" width="174" height="66" rx="4" transform="translate(283 167)" fill="#023c5d"></rect><text id="Classification" transform="translate(370 207)" fill="#fff" font-size="19" font-family="OpenSans-Semibold, Open Sans" font-weight="600"><tspan x="-60" y="0">Classification</tspan></text></g><g id="Group_16" data-name="Group 16" transform="translate(-33 179)"><g id="Rectangle_52" data-name="Rectangle 52" transform="translate(69 40)" fill="#00263c" stroke="#025b8e" stroke-width="2"><rect width="216" height="126" rx="4" stroke="none"></rect><rect x="1" y="1" width="214" height="124" rx="3" fill="none"></rect></g><text id="E1A_gene_expression_induces_susceptibility_to_killing_by_NK_cells." data-name="E1A gene expression induces susceptibility to killing by NK cells." transform="translate(177 87)" fill="#fff" font-size="16" font-family="OpenSans, Open Sans"><tspan x="-77" y="0">E1A gene expression</tspan><tspan x="-79" y="22">induces susceptibility</tspan><tspan x="-77" y="44" xml:space="preserve">to killing by NK cells.</tspan></text></g><path id="Polygon_1" data-name="Polygon 1" d="M6,0l6,10H0Z" transform="translate(504 140) rotate(90)" fill="#fff"></path><path id="Polygon_3" data-name="Polygon 3" d="M6,0l6,10H0Z" transform="translate(718 276) rotate(90)" fill="#fff"></path><path id="Polygon_2" data-name="Polygon 2" d="M6,0l6,10H0Z" transform="translate(281 140) rotate(90)" fill="#fff"></path><g id="Group_7" data-name="Group 7" transform="translate(-2 -51)"><rect id="Rectangle_55" data-name="Rectangle 55" width="174" height="66" rx="4" transform="translate(283 398)" fill="#023c5d"></rect><text id="PoS_Tagging" data-name="PoS Tagging" transform="translate(370 439)" fill="#fff" font-size="20" font-family="OpenSans-Semibold, Open Sans" font-weight="600"><tspan x="-57" y="0">PoS Tagging</tspan></text></g><g id="Group_13" data-name="Group 13" transform="translate(534 -71) rotate(90)"><path id="Path_1" data-name="Path 1" d="M256,166h54.573" transform="translate(-12)" fill="none" stroke="#fff" stroke-width="2"></path><path id="Polygon_1-2" data-name="Polygon 1" d="M6,0l6,10H0Z" transform="translate(302 160) rotate(90)" fill="#fff"></path></g><g id="Group_18" data-name="Group 18" transform="translate(753 143) rotate(90)"><path id="Path_1-2" data-name="Path 1" d="M256,166h54.573" transform="translate(-12)" fill="none" stroke="#fff" stroke-width="2"></path><path id="Polygon_1-3" data-name="Polygon 1" d="M6,0l6,10H0Z" transform="translate(302 160) rotate(90)" fill="#fff"></path></g><g id="Group_14" data-name="Group 14" transform="translate(534 45) rotate(90)"><path id="Path_1-3" data-name="Path 1" d="M256,166h54.573" transform="translate(-12)" fill="none" stroke="#fff" stroke-width="2"></path><path id="Polygon_1-4" data-name="Polygon 1" d="M6,0l6,10H0Z" transform="translate(302 160) rotate(90)" fill="#fff"></path></g><g id="Group_5" data-name="Group 5" transform="translate(-2 -52)"><rect id="Rectangle_53-2" data-name="Rectangle 53" width="174" height="66" rx="4" transform="translate(283 167)" fill="#023c5d"></rect><text id="Sentence_Segmentation" data-name="Sentence Segmentation" transform="translate(370 194)" fill="#fff" font-size="19" font-family="OpenSans-Semibold, Open Sans" font-weight="600"><tspan x="-42" y="0">Sentence</tspan><tspan x="-64" y="26">Segmentation</tspan></text></g><g id="Group_6" data-name="Group 6" transform="translate(-2 -51)"><rect id="Rectangle_54" data-name="Rectangle 54" width="174" height="66" rx="4" transform="translate(283 282)" fill="#023c5d"></rect><text id="Tokenisation" transform="translate(370 323)" fill="#fff" font-size="20" font-family="OpenSans-Semibold, Open Sans" font-weight="600"><tspan x="-62" y="0">Tokenisation</tspan></text></g><path id="Path_2" data-name="Path 2" d="M508.426,158.4H492.483V395.05H466.726" transform="translate(-12 -12.395)" fill="none" stroke="#fff" stroke-width="2"></path><g id="Group_9" data-name="Group 9" transform="translate(0 -18)"><rect id="Rectangle_56" data-name="Rectangle 56" width="165" height="298" rx="4" transform="translate(504 133)" fill="#023c5d"></rect><text id="Features_Processing" data-name="Features Processing" transform="translate(587 195)" fill="#fff" font-size="20" font-family="HelveticaNeue, Helvetica Neue"><tspan x="-38" y="0">Features</tspan><tspan x="-49" y="24">Processing</tspan></text><text id="Extraction_Model" data-name="Extraction Model" transform="translate(587 285)" fill="#fff" font-size="20" font-family="HelveticaNeue, Helvetica Neue"><tspan x="-45" y="0">Extraction</tspan><tspan x="-27" y="24">Model</tspan></text><g id="Group_8" data-name="Group 8" transform="translate(0 -9)"><rect id="Rectangle_58" data-name="Rectangle 58" width="165" height="58" transform="translate(504 365)" fill="#055b8d"></rect><text id="Recognition_Module" data-name="Recognition Module" transform="translate(587 390)" fill="#fff" font-size="20" font-family="HelveticaNeue, Helvetica Neue"><tspan x="-53" y="0">Recognition</tspan><tspan x="-33" y="24">Module</tspan></text></g></g><g id="Group_17" data-name="Group 17" transform="translate(353 -137)"><g id="Rectangle_52-2" data-name="Rectangle 52" transform="translate(365 356)" fill="#00263c" stroke="#025b8e" stroke-width="2"><rect width="252" height="126" rx="4" stroke="none"></rect><rect x="1" y="1" width="250" height="124" rx="3" fill="none"></rect></g><text id="E1A_gene_D_N_Region_expression_induces_susceptibility_to_killing_by_NK_cells_CellType_" data-name="E1A gene (D N Region) expression induces susceptibility to killing by NK cells (CellType)" transform="translate(491 392)" fill="#fff" font-size="16" font-family="OpenSans-Semibold, Open Sans" font-weight="600"><tspan x="-84" y="0">E1A gene </tspan><tspan y="0" fill="#00a2ff">(D N Region)</tspan><tspan font-family="OpenSans, Open Sans" font-weight="400"><tspan x="-40" y="22">expression</tspan><tspan x="-79" y="44">induces susceptibility</tspan><tspan x="-116" y="66" xml:space="preserve">to killing by </tspan><tspan y="66" font-family="OpenSans-Semibold, Open Sans" font-weight="600">NK cells </tspan><tspan y="66" fill="#04a1ff" font-family="OpenSans-Semibold, Open Sans" font-weight="600">(CellType)</tspan></tspan></text></g><text id="Unstructured_Text" data-name="Unstructured Text" transform="translate(138 377)" fill="#fff" font-size="20" font-family="OpenSans-Semibold, Open Sans" font-weight="600"><tspan x="-64" y="0">Unstructured</tspan><tspan x="-20" y="27">Text</tspan></text><path id="Path_3" data-name="Path 3" d="M144,225.919V153.065H273.214" transform="translate(0 -7.065)" fill="none" stroke="#fff" stroke-width="2"></path><path id="Path_4" data-name="Path 4" d="M674,460.785h17.912v-196h24.252" transform="translate(0 17.215)" fill="none" stroke="#fff" stroke-width="2"></path></g></svg> 